<?xml version="1.0" encoding="UTF-8" standalone="no"?>
<svg width="808px" height="936px" viewBox="0 0 808 936" version="1.1" xmlns="http://www.w3.org/2000/svg" xmlns:xlink="http://www.w3.org/1999/xlink" xml:space="preserve">
    <!-- Generator: Sketch 39.1 (31720) - http://www.bohemiancoding.com/sketch -->
    <title>Group</title>
    <desc>Created with Sketch.</desc>
    <defs>
        <polygon id="path-1" points="352.6403 0.099 0.6403 0.099 0.6403 352.0985 352.6403 352.0985 352.6403 0.099"></polygon>
        <linearGradient x1="50%" y1="0%" x2="50%" y2="97.9669929%" id="linearGradient-3">
            <stop stop-color="#FF5A00" offset="0%"></stop>
            <stop stop-color="#EB5200" offset="100%"></stop>
        </linearGradient>
        <path d="M242.478,513.167 C240.723,513.167 238.967,514.677 238.967,516.691 L238.967,685.107 C238.967,686.87 240.472,688.632 242.478,688.632 L262.796,688.632 C264.552,688.632 266.308,687.122 266.308,685.107 L266.308,516.691 C266.308,514.929 264.803,513.167 262.796,513.167 L242.478,513.167 L242.478,513.167 Z M194.57,513.167 C192.814,513.167 191.059,514.677 191.059,516.691 L191.059,685.107 C191.059,686.87 192.563,688.632 194.57,688.632 L214.887,688.632 C216.643,688.632 218.399,687.122 218.399,685.107 L218.399,516.691 C218.399,514.929 216.894,513.167 214.887,513.167 L194.57,513.167 L194.57,513.167 Z M564.043,578.62 C557.27,585.417 548.993,595.99 548.993,614.367 L548.993,684.855 C548.993,686.618 550.498,688.38 552.504,688.38 L572.821,688.38 C574.577,688.38 576.333,686.87 576.333,684.855 L576.333,616.13 C576.333,594.732 590.631,584.41 613.707,589.193 C616.466,589.949 618.473,588.186 618.473,585.165 L618.473,570.816 C618.473,567.292 617.971,566.033 615.463,565.026 C611.701,564.019 603.423,563.516 601.416,563.516 C586.366,563.516 573.324,569.305 564.043,578.62 L564.043,578.62 Z M81.446,574.592 C80.693,575.096 80.192,576.103 80.192,576.858 L80.192,577.109 L81.446,594.983 C81.697,597.249 84.455,598.256 86.714,596.997 C104.523,585.921 125.843,583.655 136.628,589.193 C144.153,592.97 146.41,601.025 146.41,606.563 L146.41,609.081 L116.562,609.081 C103.769,609.081 64.64,613.612 64.64,649.863 L64.64,650.367 L64.64,650.618 C64.64,662.954 68.904,672.772 77.433,679.569 C85.209,685.611 95.743,688.632 109.037,688.632 L168.985,688.632 C170.992,688.632 172.497,686.87 172.497,685.107 L172.246,613.612 C172.246,597.249 168.735,584.914 160.959,576.354 C152.933,567.543 137.632,563.516 123.083,563.516 C108.536,563.516 93.736,567.292 81.446,574.592 L81.446,574.592 Z M98,661.947 C93.987,658.926 91.981,655.15 91.981,650.367 C91.981,644.074 96.245,631.234 117.817,631.234 L146.16,631.234 L145.909,666.478 L110.542,666.478 C105.776,666.227 101.763,664.968 98,661.947 L98,661.947 Z M634.526,587.934 C626.499,598.76 622.736,612.605 622.736,625.948 C622.736,639.29 626.499,653.136 634.526,663.961 C646.064,679.821 664.375,688.129 683.689,688.129 C703.002,688.129 721.313,679.821 732.851,663.961 C740.878,653.136 744.641,639.29 744.641,625.948 C744.641,612.605 740.878,598.76 732.851,587.934 C721.313,572.074 703.002,563.768 683.689,563.768 C664.375,563.768 646.064,572.074 634.526,587.934 L634.526,587.934 Z M653.839,640.297 C652.335,636.018 651.582,630.731 651.582,626.2 C651.582,621.668 652.586,616.13 653.839,612.102 C658.355,598.76 668.889,588.186 683.689,587.934 C698.237,587.934 709.022,598.508 713.537,612.102 C715.042,616.381 715.795,621.668 715.795,626.2 C715.795,630.731 714.791,636.018 713.537,640.297 C709.022,653.64 698.488,664.213 683.689,664.465 C669.14,664.465 658.355,653.891 653.839,640.297 L653.839,640.297 Z M421.32,587.934 C405.518,609.585 405.518,642.311 421.32,663.961 C432.859,679.821 451.169,688.129 470.483,688.129 C483.025,688.129 495.315,684.604 505.349,677.555 L505.349,692.408 C505.349,712.799 487.539,716.576 476.001,717.331 C468.476,717.834 457.691,716.827 452.674,716.072 C449.665,715.569 447.406,716.072 447.406,719.344 L447.406,737.218 C447.406,738.728 448.41,739.988 450.667,740.24 C477.005,742.505 494.814,742.253 508.358,734.198 C517.89,728.659 524.411,719.848 527.923,709.275 C530.431,701.722 531.184,692.408 531.184,684.352 L531.184,625.948 C531.184,612.354 527.672,599.012 519.646,587.934 C508.108,572.074 489.797,563.768 470.483,563.768 C451.169,563.768 432.859,572.074 421.32,587.934 L421.32,587.934 Z M440.384,640.297 C438.878,636.018 438.126,630.731 438.126,626.2 C438.126,621.668 439.129,616.13 440.384,612.102 C444.898,598.76 455.434,587.934 470.232,587.934 C503.091,587.934 504.094,621.668 504.094,626.2 C504.094,630.731 503.091,664.465 470.232,664.465 C455.684,664.465 444.898,653.891 440.384,640.297 L440.384,640.297 Z M283.866,608.83 C282.361,614.367 281.859,620.158 281.859,625.948 C281.859,639.29 285.622,653.136 293.648,663.961 C305.186,679.821 323.497,687.374 342.81,688.129 C362.375,688.884 375.418,685.611 385.201,679.821 C387.207,678.562 387.458,677.555 387.458,673.779 L387.458,657.919 C387.458,654.647 385.451,653.136 382.442,655.15 C371.907,661.696 359.115,665.975 343.061,664.968 C326.758,663.71 313.213,652.13 311.958,636.018 L392.475,636.018 C394.482,636.018 395.736,634.507 395.736,632.744 C397.241,610.34 390.97,563.768 341.305,563.768 C304.936,563.768 289.384,588.186 283.866,608.83 L283.866,608.83 Z M341.557,587.683 C353.346,587.683 367.392,594.48 367.392,613.864 L312.46,613.864 C312.46,604.801 319.985,587.683 341.557,587.683 L341.557,587.683 Z" id="path-4"></path>
    </defs>
    <g id="icon" stroke="none" stroke-width="1" fill="none" fill-rule="evenodd">
        <g id="ic_allegro_" transform="translate(-108.000000, -40.000000)">
            <g id="Group" transform="translate(108.000000, 39.000000)">
                <path d="M768,177 L40,177 L40,148.2 C40,137.64 48.509,129 58.909,129 L749.091,129 C759.491,129 768,137.64 768,148.2 L768,177 Z" id="Fill-1" fill="#D94B00"></path>
                <g id="Group-5" transform="translate(228.000000, 0.901000)">
                    <mask id="mask-2" fill="white">
                        <use xlink:href="#path-1"></use>
                    </mask>
                    <g id="Clip-4"></g>
                    <path d="M176.6403,0.0985 C79.4383,0.0985 0.6403,78.8965 0.6403,176.0985 C0.6403,273.3005 79.4383,352.0985 176.6403,352.0985 C273.8423,352.0985 352.6403,273.3005 352.6403,176.0985 C352.6403,78.8965 273.8423,0.0985 176.6403,0.0985 M176.6403,48.0985 C210.8303,48.0985 242.9743,61.4125 267.1503,85.5885 C291.3263,109.7645 304.6403,141.9085 304.6403,176.0985 C304.6403,210.2885 291.3263,242.4325 267.1503,266.6085 C242.9743,290.7845 210.8303,304.0985 176.6403,304.0985 C142.4503,304.0985 110.3063,290.7845 86.1303,266.6085 C61.9543,242.4325 48.6403,210.2885 48.6403,176.0985 C48.6403,141.9085 61.9543,109.7645 86.1303,85.5885 C110.3063,61.4125 142.4503,48.0985 176.6403,48.0985" id="Fill-3" fill="#00A790" mask="url(#mask-2)"></path>
                </g>
                <path d="M19.012,176.9995 C8.555,176.9995 0,185.4965 0,195.8815 L0,852.0305 C0,898.7635 38.499,936.9995 85.553,936.9995 L722.447,936.9995 C769.501,936.9995 808,898.7635 808,852.0305 L808,195.8815 C808,185.4965 799.444,176.9995 788.988,176.9995 L19.012,176.9995 Z" id="Fill-6" fill="#FF5A00"></path>
                <path d="M0,519.956 L0,852.0305 C0,898.7635 38.499,936.9995 85.553,936.9995 L722.447,936.9995 C769.501,936.9995 808,898.7635 808,852.0305 L808,519.956 L808,844.0305 C808,890.7635 769.501,928.9995 722.447,928.9995 L85.553,928.9995 C38.499,928.9995 0,890.7635 0,844.0305 L0,519.956 Z" id="Combined-Shape" fill="#D94B00"></path>
                <path d="M0,525.956 L0,195.8815 C0,185.4965 8.555,176.9995 19.012,176.9995 L788.988,176.9995 C799.444,176.9995 808,185.4965 808,195.8815 L808,525.956 L808,199.8815 C808,189.4965 799.444,180.9995 788.988,180.9995 L19.012,180.9995 C8.555,180.9995 0,189.4965 0,199.8815 L0,525.956 Z" id="Combined-Shape" fill="#FFFFFF" opacity="0.2"></path>
                <polygon id="Fill-8" fill="url(#linearGradient-3)" points="0 809 808 809 808 605 0 605"></polygon>
                <mask id="mask-5" fill="white">
                    <use xlink:href="#path-4"></use>
                </mask>
                <g id="Clip-12"></g>
                <polygon id="Fill-11" fill="#FFFFFF" mask="url(#mask-5)" points="58.514 747.628 750.766 747.628 750.766 507.009 58.514 507.009"></polygon>
            </g>
        </g>
    </g>
</svg>