<?xml version="1.0" encoding="utf-8"?>
<!-- Generator: Adobe Illustrator 15.1.0, SVG Export Plug-In . SVG Version: 6.00 Build 0)  -->
<!DOCTYPE svg PUBLIC "-//W3C//DTD SVG 1.1//EN" "http://www.w3.org/Graphics/SVG/1.1/DTD/svg11.dtd">
<svg version="1.1" id="Layer_1" xmlns="http://www.w3.org/2000/svg" xmlns:xlink="http://www.w3.org/1999/xlink" x="0px" y="0px"
	 width="1020.152px" height="850.289px" viewBox="0 0 1020.152 850.289" enable-background="new 0 0 1020.152 850.289"
	 xml:space="preserve">
<rect x="0.5" fill="#231F20" width="1019.652" height="850.289"/>
<g>
	<g>
		<g>
			<g>
				<path fill="#F7971F" d="M434.779,508.932"/>
			</g>
			<g>
				<path fill-rule="evenodd" clip-rule="evenodd" fill="#FFFFFF" d="M560.022,349.746v-14.519c0.016-2.21,1.682-3.688,3.697-3.688
					h65.11c2.096,0,3.759,1.52,3.759,3.675v12.474c-0.025,2.059-1.786,4.798-4.904,9.134l-33.754,48.153
					c12.527-0.293,25.78,1.578,37.161,7.98c2.565,1.448,3.261,3.559,3.456,5.658v15.527c0,2.146-2.343,4.625-4.783,3.334
					c-20.062-10.525-46.659-11.668-68.817,0.126c-2.27,1.212-4.632-1.216-4.632-3.363v-14.771c0-2.354,0.038-6.391,2.418-9.983
					l39.071-56.066h-34.012C561.712,353.417,560.045,351.935,560.022,349.746z"/>
				<path fill-rule="evenodd" clip-rule="evenodd" fill="#FFFFFF" d="M322.505,440.531h-19.812
					c-1.885-0.115-3.404-1.533-3.544-3.344l0.018-101.712c0-2.028,1.697-3.663,3.818-3.663l18.448-0.007
					c1.933,0.106,3.478,1.566,3.606,3.422v13.284h0.363c4.797-12.844,13.871-18.847,26.064-18.847
					c12.4,0,20.144,6.003,25.707,18.847c4.812-12.844,15.712-18.847,27.374-18.847c8.327,0,17.378,3.431,22.934,11.137
					c6.295,8.538,4.994,20.972,4.994,31.864l-0.008,64.199c0,2.04-1.726,3.666-3.829,3.666h-19.781
					c-1.997-0.115-3.557-1.696-3.557-3.644l-0.007-53.936c0-4.276,0.362-14.965-0.565-19.05c-1.49-6.845-5.925-8.771-11.657-8.771
					c-4.787,0-9.791,3.212-11.832,8.35c-2.025,5.141-1.848,13.683-1.848,19.471v53.913c0,2.04-1.712,3.666-3.822,3.666h-19.785
					c-1.992-0.115-3.563-1.696-3.563-3.644l-0.025-53.936c0-11.351,1.859-28.034-12.19-28.034
					c-14.252,0-13.693,16.281-13.693,28.034l-0.008,53.913C326.305,438.905,324.626,440.531,322.505,440.531z"/>
				<path fill-rule="evenodd" clip-rule="evenodd" fill="#FFFFFF" d="M688.66,329.665c29.376,0,45.311,25.253,45.311,57.354
					c0,31.015-17.601,55.659-45.311,55.659c-28.86,0-44.59-25.299-44.59-56.742C644.07,354.281,659.979,329.665,688.66,329.665z
					 M688.848,350.415c-14.629,0-15.557,19.927-15.557,32.301c0,12.419-0.185,38.946,15.369,38.946
					c15.316,0,16.044-21.393,16.044-34.414c0-8.572-0.361-18.84-2.957-26.979C699.534,353.195,695.094,350.415,688.848,350.415z"/>
				<path fill-rule="evenodd" clip-rule="evenodd" fill="#FFFFFF" d="M772.085,440.531h-19.752
					c-1.997-0.115-3.555-1.696-3.555-3.644l-0.042-101.749c0.174-1.866,1.814-3.326,3.814-3.326l18.396-0.007
					c1.74,0.092,3.163,1.275,3.522,2.857v15.546h0.373c5.545-13.898,13.281-20.544,26.967-20.544
					c8.889,0,17.598,3.216,23.145,12.001c5.148,8.106,5.148,21.815,5.148,31.654v63.999c-0.229,1.823-1.854,3.212-3.758,3.212
					h-19.891c-1.807-0.107-3.307-1.475-3.536-3.212v-55.221c0-11.11,1.315-27.399-12.396-27.399c-4.816,0-9.207,3.22-11.439,8.146
					c-2.769,6.21-3.132,12.397-3.132,19.254v54.767C775.899,438.905,774.195,440.531,772.085,440.531z"/>
				<path fill-rule="evenodd" clip-rule="evenodd" fill="#FFFFFF" d="M248.416,391.956c0,7.699,0.181,14.142-3.715,21.012
					c-3.156,5.549-8.149,8.986-13.705,8.986c-7.604,0-12.05-5.795-12.05-14.352c0-16.866,15.144-19.926,29.47-19.926V391.956z
					 M268.39,440.279c-1.316,1.188-3.204,1.25-4.683,0.467c-6.575-5.493-7.751-8.006-11.351-13.214
					c-10.886,11.081-18.562,14.411-32.678,14.411c-16.666,0-29.629-10.295-29.629-30.899c0-16.101,8.701-27.02,21.12-32.394
					c10.733-4.724,25.748-5.578,37.246-6.871v-2.551c0-4.719,0.373-10.309-2.406-14.374c-2.421-3.645-7.056-5.155-11.118-5.155
					c-7.555,0-14.278,3.869-15.93,11.904c-0.345,1.781-1.656,3.56-3.441,3.652l-19.202-2.081c-1.626-0.366-3.43-1.659-2.96-4.151
					c4.417-23.297,25.443-30.334,44.298-30.334c9.646,0,22.243,2.573,29.851,9.876c9.65,9.008,8.715,21.013,8.715,34.075v30.873
					c0,9.286,3.855,13.337,7.459,18.356c1.261,1.796,1.545,3.958-0.062,5.292c-4.025,3.387-11.226,9.637-15.185,13.166
					L268.39,440.279z"/>
				<path fill-rule="evenodd" clip-rule="evenodd" fill="#FFFFFF" d="M508.11,391.956c0,7.699,0.191,14.142-3.711,21.012
					c-3.131,5.549-8.143,8.986-13.705,8.986c-7.604,0-12.031-5.795-12.031-14.352c0-16.866,15.124-19.926,29.447-19.926V391.956z
					 M528.081,440.279c-1.31,1.188-3.179,1.25-4.669,0.467c-6.575-5.493-7.759-8.006-11.351-13.214
					c-10.874,11.081-18.592,14.411-32.67,14.411c-16.688,0-29.644-10.295-29.644-30.899c0-16.101,8.712-27.02,21.131-32.394
					c10.741-4.724,25.747-5.578,37.231-6.871v-2.551c0-4.719,0.37-10.309-2.402-14.374c-2.398-3.645-7.041-5.155-11.114-5.155
					c-7.566,0-14.26,3.869-15.923,11.904c-0.337,1.781-1.638,3.56-3.452,3.652l-19.19-2.081c-1.623-0.366-3.427-1.659-2.957-4.151
					c4.413-23.297,25.451-30.334,44.302-30.334c9.628,0,22.243,2.573,29.816,9.876c9.651,9.008,8.724,21.013,8.724,34.075v30.873
					c0,9.286,3.848,13.337,7.48,18.356c1.279,1.796,1.556,3.958-0.056,5.292c-4.046,3.387-11.246,9.637-15.213,13.166
					L528.081,440.279z"/>
			</g>
			<g>
				<path fill-rule="evenodd" clip-rule="evenodd" fill="#F9A51B" d="M586.477,480.055c-37.793,26.975-90.435,41.545-136.88,41.545
					c-65.056,0-123.044-23.549-167.72-63.893c-4.132-3.732-1.464-8.109,3.674-5.156c48.601,28.107,106.848,44.551,167.964,44.551
					c41.215,0,84.992-8.207,126.593-25.906C589.204,467.32,592.974,475.412,586.477,480.055z"/>
				<path fill-rule="evenodd" clip-rule="evenodd" fill="#F9A51B" d="M602.625,461.848c-4.78-6.107-31.469-2.887-43.46-1.471
					c-3.61,0.443-4.198-2.732-0.908-5.027c21.288-14.881,56.185-10.549,60.22-5.637c4.081,5.053-1.078,40.066-21.022,56.779
					c-3.076,2.588-5.962,1.184-4.609-2.203C597.324,493.061,607.381,467.932,602.625,461.848z"/>
			</g>
		</g>
	</g>
	<path fill="#FFFFFF" d="M852.636,423.922c2.232,0,4.129,0.785,5.695,2.355c1.563,1.556,2.351,3.449,2.351,5.663
		c0,2.229-0.787,4.124-2.351,5.691c-1.56,1.571-3.455,2.358-5.695,2.358c-2.233,0-4.129-0.787-5.689-2.358
		c-1.555-1.567-2.335-3.463-2.335-5.691c0-2.214,0.78-4.107,2.351-5.663C848.529,424.707,850.425,423.922,852.636,423.922z
		 M861.942,431.921c0-2.565-0.913-4.749-2.725-6.553c-1.814-1.805-4.018-2.709-6.59-2.709c-2.558,0-4.738,0.904-6.554,2.709
		c-1.811,1.814-2.723,3.995-2.723,6.553c0,2.579,0.9,4.778,2.7,6.59c1.805,1.827,4.004,2.74,6.576,2.74s4.775-0.913,6.59-2.74
		C861.029,436.696,861.942,434.498,861.942,431.921z M855.098,429.914c0,0.766-0.352,1.287-1.062,1.567
		c-0.395,0.155-0.972,0.222-1.741,0.222h-1.647v-3.637h1.552c1.017,0,1.748,0.117,2.214,0.369
		C854.868,428.688,855.098,429.174,855.098,429.914z M848.892,426.802v10.172h1.756v-4.009h1.438c0.972,0,1.651,0.113,2.033,0.324
		c0.657,0.388,0.979,1.156,0.979,2.336v0.806l0.039,0.325c0.008,0.045,0.016,0.08,0.023,0.115c0.015,0.029,0.022,0.069,0.03,0.103
		h1.67l-0.066-0.13c-0.049-0.088-0.078-0.258-0.093-0.527c-0.021-0.271-0.021-0.521-0.021-0.758v-0.74
		c0-0.513-0.193-1.042-0.555-1.585c-0.373-0.536-0.95-0.868-1.749-0.991c0.629-0.099,1.12-0.262,1.475-0.492
		c0.673-0.436,1.01-1.104,1.01-2.009c0-1.276-0.536-2.134-1.593-2.576c-0.593-0.241-1.524-0.363-2.794-0.363H848.892z"/>
</g>
</svg>
