<?xml version="1.0" encoding="utf-8"?>
<!-- Generator: Adobe Illustrator 21.0.0, SVG Export Plug-In . SVG Version: 6.00 Build 0)  -->
<svg version="1.1" xmlns="http://www.w3.org/2000/svg" xmlns:xlink="http://www.w3.org/1999/xlink" x="0px" y="0px"
	 viewBox="0 0 200 200" enable-background="new 0 0 200 200" xml:space="preserve">
<g id="bg" display="none">
	<rect y="0" display="inline" fill="#FFFFFF" width="200" height="200"/>
</g>
<g id="icons">
	<g id="XMLID_3_">
		<rect id="XMLID_64_" y="144.5" fill="#E30000" width="36" height="11"/>
		<rect id="XMLID_63_" y="130.5" fill="#E30000" width="36" height="11"/>
		<rect id="XMLID_62_" y="116.5" fill="#E30000" width="36" height="11"/>
		<rect id="XMLID_61_" y="101.5" fill="#F29677" width="36" height="11"/>
		<rect id="XMLID_60_" y="87.5" fill="#F29677" width="36" height="11"/>
		<rect id="XMLID_59_" x="41" y="144.5" fill="#FFEC00" width="36" height="11"/>
		<rect id="XMLID_8_" x="41" y="130.5" fill="#FFEC00" width="36" height="11"/>
		<rect id="XMLID_9_" x="41" y="116.5" fill="#FFEC00" width="36" height="11"/>
		<rect id="XMLID_10_" x="82" y="144.5" fill="#E6007E" width="36" height="11"/>
		<rect id="XMLID_11_" x="82" y="130.5" fill="#E6007E" width="36" height="11"/>
		<rect id="XMLID_12_" x="82" y="116.5" fill="#E6007E" width="36" height="11"/>
		<rect id="XMLID_13_" x="82" y="101.5" fill="#F19AC1" width="36" height="11"/>
		<rect id="XMLID_14_" x="82" y="87.5" fill="#F19AC1" width="36" height="11"/>
		<rect id="XMLID_15_" x="82" y="72.5" fill="#F19AC1" width="36" height="11"/>
		<rect id="XMLID_7_" x="82" y="58.5" fill="#F19AC1" width="36" height="11"/>
		<rect id="XMLID_6_" x="123" y="144.5" fill="#C5D300" width="36" height="11"/>
		<rect id="XMLID_18_" x="123" y="130.5" fill="#C5D300" width="36" height="11"/>
		<rect id="XMLID_19_" x="123" y="116.5" fill="#C5D300" width="36" height="11"/>
		<rect id="XMLID_5_" x="123" y="101.5" fill="#E2E794" width="36" height="11"/>
		<rect id="XMLID_21_" x="123" y="87.5" fill="#E2E794" width="36" height="11"/>
		<rect id="XMLID_4_" x="164" y="144.5" fill="#37BCEF" width="36" height="11"/>
		<rect id="XMLID_23_" x="164" y="130.5" fill="#37BCEF" width="36" height="11"/>
		<rect id="XMLID_24_" x="164" y="116.5" fill="#37BCEF" width="36" height="11"/>
		<rect id="XMLID_25_" x="164" y="101.5" fill="#B9E1F8" width="36" height="11"/>
		<rect id="XMLID_26_" x="164" y="87.5" fill="#B9E1F8" width="36" height="11"/>
		<rect id="XMLID_27_" x="164" y="72.5" fill="#B9E1F8" width="36" height="11"/>
		<rect id="XMLID_28_" x="164" y="58.5" fill="#B9E1F8" width="36" height="11"/>
		<rect id="XMLID_29_" x="164" y="44.5" fill="#B9E1F8" width="36" height="11"/>
	</g>
</g>
</svg>
