<svg xmlns="http://www.w3.org/2000/svg" viewBox="0 0 288.6 108.9"><path fill="#005A9C" d="M144.3.5C64.4.5.3 24.5.3 54.5c0 29.9 64.6 54 144 54s144-24.2 144-54-64.6-54-144-54z"/><path fill="#FFF" d="M228.9 39c.2-.3 0-.6-.4-.6h-7.3c-.5 0-.8.1-1.1.6-.8 1.6-11 16.8-12.9 19.8-.3.5-.7.4-.8-.1-.2-1.8-1.7-3.8-4.1-4.7-1.8-.7-3.6-.9-5.5-.6-3.3.4-6.3 2.2-8.9 4.2-3.9 3-7.4 6.9-11.8 9.8-2.4 1.6-5.7 2.9-7.9.9-2-1.8-1.8-5.9 1.3-9.1.3-.3.7-.1.6.2-.3 1.4.1 2.9 1.2 3.9 1.3 1.2 3.2 1.3 4.9.5 1.9-1 3-2.8 3.4-4.9.5-3.2-2-6.1-5.1-6.3-2.5-.2-5 .7-7.3 2.7-1.2 1-1.9 1.7-2.9 3.2-.2.4-.6.4-.6-.1.1-4.1-1.6-6.5-5-6.6-2.7-.1-5.5 1.4-7.7 3.1-2.4 1.9-4.5 4.5-6.8 7-.3.3-.5.3-.6-.3-.1-2.7-.8-5.4-2-7.3-.4-.7-1.4-1-2.2-.5-.4.2-1.6.8-2.6 1.5-.5.4-.6.9-.4 1.6 1.2 4.1 1 8.8-.7 12.7-1.5 3.6-4.5 6.9-8 8-2.3.7-4.7.4-6.2-1.7-2-2.8-1.2-7.7 1.8-11.8 2.7-3.6 6.5-5.8 10.4-7.3.5-.2.5-.5.4-.9-.2-.6-.5-1.5-.7-1.9-.4-.9-1.3-1.1-2.6-1-2.8.3-5.3 1.3-7.8 2.6-6.5 3.5-9.8 10.3-11.2 13.9-.7 1.7-1.3 2.8-2 3.8-1 1.3-2.3 2.5-4.7 4.6-.2.2-.4.6-.2 1 .2.5 1.5 2.2 1.8 2.4.4.2.8-.1 1-.2 1.7-1.1 3.6-2.9 4.6-4.1.3-.4.7-.2.9.4.9 3.2 3.3 5.9 6.5 7 6 2 12.2-.9 16.9-6 3-3.2 4.1-5.3 5.2-6.7 1.9-2.4 5.8-7.8 10.3-11.2 1.7-1.3 3.6-2.2 4.6-1.6.8.5 1.1 1.7-.2 4-4.6 8.5-11.5 18.4-12.7 20.8-.2.4 0 .7.4.7h7c.4 0 .5-.2.7-.4 3.6-5.6 6.9-10.9 10.5-16.4.2-.3.4-.1.4.1.1 1.3.4 3 1.1 4.2 1.4 2.1 3.3 3 5.4 3 1.7 0 2.6-.2 4.4-.9 1.5-.6 2.7-1.3 3.6-1.9.5-.4.6.3.6.3-.8 4.4.2 9.7 4.6 11.8 5.3 2.6 11-1.1 14.4-4.3.3-.3.7-.3.7.4.1 1.3.6 2.7 1.7 3.8 2.8 2.8 8.4 1.7 14.1-2.7 3.6-2.8 7.4-6.8 10.8-10.9.1-.2.2-.4 0-.7-.5-.5-1.3-1.2-1.8-1.7-.2-.2-.6-.1-.8 0-3.5 3.3-6.7 7.1-11.2 10.3-1.5 1.1-4 1.9-5.1.5-.4-.6-.4-1.4 0-2.4 1.4-3.5 22.5-35.6 23.6-37.5zM201 65.9c0 .2.4.5.7.6.1 0 .2.1 0 .4-.9 1.9-1.7 3-2.8 4.7-1 1.5-2.2 2.7-3.6 3.9-2.1 1.8-5.1 3.7-7.5 2.4-1.1-.6-1.6-2.1-1.5-3.3.1-3.5 1.6-7 4.4-10.5 3.5-4.3 7.3-6.5 9.8-5.3 2.6 1.2 1.8 4.2.6 6.6-.1.2-.1.4-.1.5z"/><path fill="#FFF" d="M75.9 84.2c-7.9.1-14.8-4.8-15.6-13.2-.4-4.7.9-8.8 3.5-12.2 2.3-3 6.3-5.6 9.7-6.2 1.1-.2 2.6-.1 3.2.6 1 1.1.7 2.3-.3 2.8-2.6 1.3-5.6 3.5-7.2 6.6-1.2 2.5-1.5 5.5.4 8.4 3.2 4.8 12 4.9 20.1-2.7 2-1.9 3.8-3.6 5.7-5.8 3.6-4.1 4.8-5.6 9.6-12.3.1-.1.1-.2 0-.2 0-.1-.1-.1-.2-.1-3.2.1-6 1-8.7 3.1-.8.6-1.9.5-2.4-.3s-.2-2 .7-2.6c4.4-3 9.1-3.6 14-4.4 0 0 .3 0 .6-.4 2-2.6 3.5-4.9 5.6-7.5 2.1-2.6 4.9-5 7-6.9 3-2.5 4.8-3.4 6.8-4.4.5-.3-.1-.6-.2-.6-10.8-2-21.9-4.6-32.6-.7-7.4 2.8-10.6 8.6-9.1 12.5 1.1 2.8 4.8 3.2 8.2 1.6 2.8-1.4 5.5-3.6 7.3-6.5 1-1.6 3.2-.4 2.1 2.3-3.1 7.3-9.1 13.2-16.4 13.4-6.2.2-10.2-4.4-10.2-10 0-11.1 12.4-18.4 25.3-19.5 15.6-1.3 30.4 2.9 45.9 4.7 11.9 1.4 23.3 1.5 35.2-1.3 1.4-.3 2.4.6 2.3 2-.1 2.1-1.7 4-5.6 6.2-4.5 2.5-9.1 3.2-14 3.2-11.8.1-22.8-4.5-34.2-7 0 .5.1 1.1-.3 1.4-6.3 4.7-12 9.4-15.8 16-.1.2-.1.3.2.3 3.3-.2 6.3-.3 9.4-.5.5 0 .6-.2.5-.6-.3-2.3.4-4.9 2.4-6.7 2.1-1.8 4.6-2.1 6.3-.7 1.9 1.5 1.8 4.2.7 6.3-1.1 2.1-2.9 3.2-4.6 3.7 0 0-.4.1-.3.4.1.5 2.4 1.8 2.6 2.2.2.3.1.8-.3 1.2-.2.3-.6.5-1.1.5-.4 0-.6-.1-1.2-.4-1-.6-2.4-1.5-3.2-2.6-.3-.4-.4-.4-1.2-.3-3.3.2-8.6.7-12.1 1.1-.9.1-1 .3-1.2.6-5.6 9.3-11.7 19.3-18.3 26-6.8 7.6-12.7 9.5-19 9.5zm53.8-41.3c.1.5.3.6.5.5 1.1-.2 2.3-1.1 2.9-2.1.6-.9.9-2.3.3-2.8-.6-.5-1.5-.3-2.2.3-1.3 1.1-1.7 2.8-1.5 4.1"/><path fill="#FFF" d="M144.3 103.8c-76.2 0-138-22.1-138-49.3 0-27.2 61.8-49.3 138-49.3s138 22.1 138 49.3c0 27.2-61.8 49.3-138 49.3zm0-94.5C70.8 9.3 11.2 29.7 11.2 54.5c0 24.9 59.6 45.2 133.1 45.2s133.1-20.3 133.1-45.2c0-24.8-59.6-45.2-133.1-45.2z"/></svg>
