<?xml version="1.0" encoding="UTF-8"?>
<!DOCTYPE svg PUBLIC "-//W3C//DTD SVG 1.1//EN" "http://www.w3.org/Graphics/SVG/1.1/DTD/svg11.dtd">
<!-- Creator: CorelDRAW -->
<svg xmlns="http://www.w3.org/2000/svg" xml:space="preserve" width="2049px" height="1984px" shape-rendering="geometricPrecision" text-rendering="geometricPrecision" image-rendering="optimizeQuality" fill-rule="evenodd" clip-rule="evenodd"
viewBox="0 0 2200.59 2130.34"
 xmlns:xlink="http://www.w3.org/1999/xlink">
 <g id="Ebene_x0020_1">
  <metadata id="CorelCorpID_0Corel-Layer"/>
  <g id="g1963">
   <path id="path1965" fill="#DA251D" d="M1606.73 151.243c-50.6032,225.554 -70.5426,329.159 -111.632,492.465 -39.4247,156.732 -69.9604,302.135 -122.776,372.644 -53.617,71.532 -125.113,87.1081 -173.81,92.5876 -25.2084,2.82729 -43.5889,4.09443 -98.1838,4.30372 -54.6051,-0.220703 -72.9742,-1.47643 -98.1838,-4.30372 -48.6955,-5.47953 -120.228,-21.0556 -173.81,-92.5876 -52.7912,-70.5198 -83.351,-215.946 -122.811,-372.644 -41.0648,-163.318 -61.0384,-266.923 -111.607,-492.465 0,0 -50.4536,1.96604 -72.789,3.53633 -30.1996,2.15122 -53.8377,4.73498 -79.594,8.15461 0,0 29.025,463.847 42.1708,660.366 13.8193,206.709 38.0751,555.017 60.8761,818.018 0,0 42.356,6.73526 112.713,10.7726 73.9978,4.24537 106.897,4.71088 106.897,4.71088 30.4444,-115.854 68.0883,-276.647 110.84,-345.224 34.7481,-55.7695 88.2725,-61.679 118.623,-65.8318 47.6732,-6.49172 87.8767,-7.47982 106.502,-6.89888l0 0c0.0570785,0 0.128109,0 0.185188,0 0.0583469,0 0.152209,0 0.186456,0l0 0c18.6253,-0.616447 58.8517,0.395744 106.525,6.89888 30.3163,4.15278 83.8749,10.0623 118.623,65.8318 42.7518,68.5779 80.3969,229.37 110.864,345.224 0,0 32.8975,-0.488338 106.897,-4.71088 70.3333,-4.03735 112.713,-10.7726 112.713,-10.7726 22.7768,-263.014 47.0555,-611.275 60.9103,-818.018 13.1458,-196.53 42.1353,-660.366 42.1353,-660.366 -25.7322,-3.41963 -49.3703,-5.96787 -79.594,-8.15461 -22.428,-1.55888 -72.8702,-3.53633 -72.8702,-3.53633z"/>
   <path id="path1967" fill="#DA251D" d="M2191.13 425.086c-29.9205,-294.609 -226.473,-356.823 -399.028,-385.754 -86.9812,-14.588 -241.469,-26.9309 -340.514,-30.9911 -86.55,-5.53788 -290.699,-8.31823 -351.308,-8.34107 -60.5742,0.0355155 -264.736,2.80319 -351.286,8.34107 -99.0438,4.06018 -253.532,16.4031 -340.478,30.9911 -172.577,28.9312 -369.143,91.1454 -399.086,385.754 -8.15461,80.2447 -10.4936,184.955 -9.01586,297.703 2.46706,186.677 18.4972,312.744 27.6754,400.005 6.30527,59.8994 31.3285,239.957 63.47,333.092 44.1369,127.975 83.8165,165.248 130.536,203.324 85.4097,69.6586 226.078,91.0757 256.057,96.4613 158.827,28.5595 480.251,33.7017 622.14,33.5152 141.924,0.186456 463.382,-4.95568 622.139,-33.5152 30.0144,-5.38567 170.67,-26.8142 256.081,-96.4613 46.7181,-38.0751 86.399,-75.3486 130.535,-203.324 32.1314,-93.1356 57.1305,-273.193 63.4712,-333.092 9.1668,-87.2603 25.2084,-213.328 27.6399,-400.005 1.50053,-112.749 -0.837151,-217.493 -9.02728,-297.703zm-107.944 494.873c-17.4495,235.338 -38.377,376.46 -68.2975,478.192 -26.2903,89.1096 -58.8517,148.974 -106.408,192.004 -79.3847,71.811 -188.713,87.2248 -252.858,96.7759 -138.574,20.5559 -371.935,27.6983 -555.354,27.768 -183.418,-0.0570785 -416.756,-7.20076 -555.353,-27.768 -64.1105,-9.53844 -173.416,-24.9648 -252.788,-96.7759 -47.5793,-43.0308 -80.1521,-102.93 -106.408,-192.004 -29.9434,-101.72 -50.8835,-242.854 -68.2988,-478.192 -10.5164,-141.854 -8.29413,-371.69 7.4925,-495.21 23.4872,-184.176 114.934,-276.95 310.906,-311.884 91.4486,-16.2864 214.375,-27.8492 331.032,-33.6078 93.5427,-6.30527 247.495,-9.48137 333.43,-8.67846 85.9678,-0.802904 239.921,2.3732 333.428,8.67846 116.657,5.78141 239.584,17.3328 331.032,33.6078 195.972,34.9346 287.419,127.674 310.965,311.861 15.7625,123.543 17.9505,353.379 7.47982,495.233z"/>
  </g>
  <path fill="#DA251D" d="M1727.67 2121.48l0 -33.2336 34.3409 -3.32323c11.0796,-2.21845 15.5063,-12.1856 17.721,-14.4003l83.0859 -136.256c6.64393,-9.96717 -0.00380523,-19.9356 -8.86492,-21.0442l-43.2033 -4.43183 0 -34.3384 189.427 0c11.0808,0 17.7248,7.75252 22.1566,14.4003l110.778 169.489c8.86492,13.2879 15.505,24.3674 26.5846,25.476l35.4508 3.3207 0 34.3422 -213.802 0 0 -33.2336 26.5884 -3.32323c13.2942,-1.10605 24.3674,-7.75252 13.2917,-23.2588l-9.96717 -15.5114 -151.763 0 -12.1894 18.8283c-6.64393,11.0808 0,18.8359 11.0796,19.9458l27.6919 3.31943 0 33.2336 -158.407 0zm158.407 -119.64l96.3763 0 -48.7412 -75.3258 -47.6351 75.3258z"/>
  <path fill="#DA251D" d="M1585.87 1874.45l-243.705 0 0 34.3384 29.9066 2.21718c12.1882,2.21464 16.6174,9.97097 16.6174,21.0467 0,11.077 0,124.072 0,132.931 0,9.97097 -4.43183,18.8321 -14.4028,19.9419l-32.1212 4.42929 0 32.1238 243.705 0c112.989,0 161.734,-54.2765 161.734,-127.389 0.00253682,-64.2539 -48.745,-119.639 -161.738,-119.639l0.00380523 0zm-37.6654 199.395l-63.1377 0 0 -151.763 63.1377 0c60.9306,0 85.298,13.2942 85.298,76.4357 0.00380523,62.0316 -24.3674,75.3296 -85.298,75.3271z"/>
  <path fill="#DA251D" d="M13.955 2121.48l198.289 0 0 -33.2336 -34.3409 -3.32323c-7.75252,-1.10605 -15.5089,-5.53534 -15.5089,-22.1528l0 -39.8763 152.871 0 0 37.6578c0,11.077 -2.21464,22.1566 -15.5089,23.2652l-34.3409 3.3207 0 34.3422 198.289 0 0 -34.3422 -35.447 -3.3207c-6.64774,-1.1124 -14.4003,-6.64647 -14.4003,-19.9381l0 -128.5c0,-13.2942 4.42929,-22.1566 15.5089,-23.2652l34.3384 -3.32323 0 -34.3384 -198.289 0 0 33.2323 34.3409 4.42548c12.1882,1.1124 15.5089,11.0834 15.5089,23.269l0 37.6616 -152.871 0 0 -38.774c0,-14.4003 6.64647,-21.0442 16.6174,-22.1528l33.2323 -3.32323 0 -34.3384 -197.183 0 0 34.3384 33.2362 3.31943c12.1843,1.1124 16.6136,11.0834 15.5089,23.269l0 125.173c0,14.4041 -3.3245,23.2652 -16.6187,24.375l-33.2323 3.31943 0 33.2336z"/>
  <path fill="#DA251D" d="M472.57 1997.41c0,-77.5443 63.1415,-131.821 202.719,-131.821 138.472,0 201.61,54.2803 201.61,131.821 0,78.6516 -63.1377,132.934 -201.61,132.934 -139.577,-0.00380523 -202.719,-54.2803 -202.719,-132.934l0 0zm202.719 -85.3006c-56.4937,0 -88.6213,21.0543 -88.6213,85.3006 0,65.3561 32.1276,86.4066 88.6213,86.4066 55.3915,0 87.5127,-21.0467 87.5127,-86.4066 0,-64.2462 -32.1212,-85.2968 -87.5127,-85.3006z"/>
  <path fill="#DA251D" d="M887.978 2121.48l157.304 0 0 -33.2336 -33.2323 -3.32323c-9.97097,-1.10605 -15.5127,-8.85858 -15.5127,-21.0442l0 -125.177 130.726 172.809c4.42168,6.6414 13.2866,9.97097 21.0404,9.97097l124.071 -0.00253682 0 -187.214c0,-8.85858 2.21464,-21.0442 14.4003,-22.1528l34.3422 -3.32323 0 -34.3384 -157.302 0 0 33.2323 34.3422 4.42548c12.1818,1.1124 14.4003,12.1894 14.4003,23.269l0 121.85 -129.607 -171.697c-5.53788,-6.65408 -12.1882,-11.0796 -21.0505,-11.0796l-173.922 0 0 34.3384 32.1276 3.31943c12.1843,2.21845 16.6174,7.76013 16.6174,23.269l0 125.173c0,15.5101 -4.43309,22.1566 -16.6174,24.375l-32.1276 3.31943 0 33.2336z"/>
 </g>
</svg>
