<?xml version="1.0" encoding="UTF-8" standalone="no"?>
<!-- Created with Inkscape (http://www.inkscape.org/) -->

<svg
   xmlns:dc="http://purl.org/dc/elements/1.1/"
   xmlns:cc="http://creativecommons.org/ns#"
   xmlns:rdf="http://www.w3.org/1999/02/22-rdf-syntax-ns#"
   xmlns:svg="http://www.w3.org/2000/svg"
   xmlns="http://www.w3.org/2000/svg"
   xmlns:sodipodi="http://sodipodi.sourceforge.net/DTD/sodipodi-0.dtd"
   xmlns:inkscape="http://www.inkscape.org/namespaces/inkscape"
   width="235.82481"
   height="235.85306"
   id="svg2"
   sodipodi:version="0.32"
   inkscape:version="0.48.2 r9819"
   version="1.0"
   sodipodi:docname="LG_symbol.svg"
   inkscape:output_extension="org.inkscape.output.svg.inkscape">
  <defs
     id="defs4">
    <inkscape:perspective
       sodipodi:type="inkscape:persp3d"
       inkscape:vp_x="0 : 526.18109 : 1"
       inkscape:vp_y="0 : 1000 : 0"
       inkscape:vp_z="744.09448 : 526.18109 : 1"
       inkscape:persp3d-origin="372.04724 : 350.78739 : 1"
       id="perspective10" />
    <clipPath
       id="clipPath2520"
       clipPathUnits="userSpaceOnUse">
      <path
         id="path2522"
         d="m 0.06,651 476.04,0 0,-651 -476.04,0 0,651 z"
         inkscape:connector-curvature="0" />
    </clipPath>
    <clipPath
       id="clipPath2512"
       clipPathUnits="userSpaceOnUse">
      <path
         id="path2514"
         d="M 0,651 476,651 476,0 0,0 0,651 z"
         inkscape:connector-curvature="0" />
    </clipPath>
    <clipPath
       id="clipPath2492"
       clipPathUnits="userSpaceOnUse">
      <path
         id="path2494"
         d="m 0.06,651 476.04,0 0,-651 -476.04,0 0,651 z"
         inkscape:connector-curvature="0" />
    </clipPath>
    <clipPath
       id="clipPath2484"
       clipPathUnits="userSpaceOnUse">
      <path
         id="path2486"
         d="M 0,651 476,651 476,0 0,0 0,651 z"
         inkscape:connector-curvature="0" />
    </clipPath>
    <clipPath
       id="clipPath2476"
       clipPathUnits="userSpaceOnUse">
      <path
         id="path2478"
         clip-rule="evenodd"
         d="m 175.88,289.32 88.67,0 0,-54.56 -88.67,0 0,54.56 z"
         inkscape:connector-curvature="0" />
    </clipPath>
    <clipPath
       id="clipPath2452"
       clipPathUnits="userSpaceOnUse">
      <path
         id="path2454"
         d="m 0.06,651 476.04,0 0,-651 -476.04,0 0,651 z"
         inkscape:connector-curvature="0" />
    </clipPath>
    <clipPath
       id="clipPath2444"
       clipPathUnits="userSpaceOnUse">
      <path
         id="path2446"
         d="M 0,651 476,651 476,0 0,0 0,651 z"
         inkscape:connector-curvature="0" />
    </clipPath>
    <clipPath
       id="clipPath2436"
       clipPathUnits="userSpaceOnUse">
      <path
         id="path2438"
         clip-rule="evenodd"
         d="m 260.55,378.32 115.05,0 0,-22.42 -115.05,0 0,22.42 z"
         inkscape:connector-curvature="0" />
    </clipPath>
    <clipPath
       id="clipPath2426"
       clipPathUnits="userSpaceOnUse">
      <path
         id="path2428"
         d="m 0.06,651 476.04,0 0,-651 -476.04,0 0,651 z"
         inkscape:connector-curvature="0" />
    </clipPath>
    <clipPath
       id="clipPath2418"
       clipPathUnits="userSpaceOnUse">
      <path
         id="path2420"
         d="M 0,651 476,651 476,0 0,0 0,651 z"
         inkscape:connector-curvature="0" />
    </clipPath>
    <inkscape:perspective
       id="perspective2410"
       inkscape:persp3d-origin="372.04724 : 350.78739 : 1"
       inkscape:vp_z="744.09448 : 526.18109 : 1"
       inkscape:vp_y="0 : 1000 : 0"
       inkscape:vp_x="0 : 526.18109 : 1"
       sodipodi:type="inkscape:persp3d" />
  </defs>
  <sodipodi:namedview
     id="base"
     pagecolor="#ffffff"
     bordercolor="#666666"
     borderopacity="1.0"
     gridtolerance="10000"
     guidetolerance="10"
     objecttolerance="10"
     inkscape:pageopacity="0.0"
     inkscape:pageshadow="2"
     inkscape:zoom="1"
     inkscape:cx="411.85255"
     inkscape:cy="107.84785"
     inkscape:document-units="px"
     inkscape:current-layer="g2490"
     showgrid="false"
     inkscape:window-width="1600"
     inkscape:window-height="877"
     inkscape:window-x="-4"
     inkscape:window-y="-4"
     fit-margin-top="0"
     fit-margin-left="0"
     fit-margin-right="0"
     fit-margin-bottom="0"
     inkscape:window-maximized="0" />
  <metadata
     id="metadata7">
    <rdf:RDF>
      <cc:Work
         rdf:about="">
        <dc:format>image/svg+xml</dc:format>
        <dc:type
           rdf:resource="http://purl.org/dc/dcmitype/StillImage" />
      </cc:Work>
    </rdf:RDF>
  </metadata>
  <g
     inkscape:label="Layer 1"
     inkscape:groupmode="layer"
     id="layer1"
     transform="translate(-71.756477,-167.06864)">
    <g
       clip-path="url(#clipPath2492)"
       id="g2490"
       transform="matrix(7.0593551,0,0,-7.0593551,-1219.9502,2145.5235)">
      <path
         inkscape:connector-curvature="0"
         id="path2496"
         style="fill:#c4084f;fill-opacity:1;fill-rule:nonzero;stroke:none"
         d="m 199.679,246.85 c 9.226,0 16.705,7.491 16.705,16.703 0,9.229 -7.479,16.707 -16.705,16.707 -9.225,0 -16.701,-7.478 -16.701,-16.707 0,-9.212 7.476,-16.703 16.701,-16.703" />
      <path
         inkscape:connector-curvature="0"
         id="path2498"
         style="fill:#ffffff;fill-opacity:1;fill-rule:nonzero;stroke:none"
         d="m 199.006,270.894 0,-14.661 4.652,0 0,1.317 -3.307,0 0,13.344 -1.345,0" />
      <path
         inkscape:connector-curvature="0"
         id="path2500"
         style="fill:#ffffff;fill-opacity:1;fill-rule:nonzero;stroke:none"
         d="m 194.342,266.886 c 1.103,0 2.011,0.896 2.011,2.002 0,1.112 -0.908,2.01 -2.011,2.01 -1.103,0 -2.005,-0.898 -2.005,-2.01 0,-1.106 0.902,-2.002 2.005,-2.002" />
      <path
         inkscape:connector-curvature="0"
         id="path2502"
         style="fill:#ffffff;fill-opacity:1;fill-rule:nonzero;stroke:none"
         d="m 200.351,277.526 c -0.183,0.005 -0.5,0.005 -0.672,0.005 -7.711,0 -13.984,-6.26 -13.984,-13.975 0,-3.731 1.458,-7.246 4.091,-9.883 2.646,-2.643 6.149,-4.112 9.893,-4.112 3.736,0 7.244,1.469 9.888,4.112 2.633,2.637 4.083,6.152 4.083,9.883 l 0,0.639 -9.979,0 0,-1.298 8.655,0 c 0,-0.026 -0.006,-0.169 -0.006,-0.198 -0.426,-6.601 -5.948,-11.811 -12.641,-11.811 -3.38,0 -6.576,1.312 -8.965,3.699 -2.392,2.392 -3.717,5.583 -3.717,8.97 0,3.384 1.325,6.569 3.717,8.96 2.389,2.397 5.585,3.717 8.965,3.717 0.15,0 0.506,-0.008 0.672,-0.011 l 0,1.303" />
    </g>
  </g>
</svg>
