<svg id="Layer_1" xmlns="http://www.w3.org/2000/svg" viewBox="-983 990 36.1 36"><style>.st0{fill:#FFFFFF;} .st1{fill:#55ACEE;}</style><path class="st0" d="M-949.7 990h-30.6c-1.5 0-2.7 1.2-2.7 2.6v30.8c0 1.4 1.2 2.6 2.7 2.6h30.7c1.5 0 2.7-1.2 2.7-2.6v-30.8c-.1-1.4-1.3-2.6-2.8-2.6z"/><g id="g16"><path id="path22" class="st1" d="M-951.2 999.4c-1 .5-2.1.8-3.3.9 1.2-.7 2.1-1.8 2.5-3.1-1.1.7-2.3 1.1-3.6 1.4-1-1.1-2.5-1.8-4.1-1.8-3.1 0-5.7 2.5-5.7 5.7 0 .4 0 .9.1 1.3-4.7-.2-8.9-2.5-11.7-5.9-.5.8-.8 1.8-.8 2.9 0 2 1 3.7 2.5 4.7-.9 0-1.8-.3-2.6-.7v.1c0 2.8 2 5 4.6 5.6-.5.1-1 .2-1.5.2-.4 0-.7 0-1.1-.1.7 2.3 2.8 3.9 5.3 3.9-1.9 1.5-4.4 2.4-7.1 2.4-.5 0-.9 0-1.4-.1 2.5 1.6 5.5 2.6 8.7 2.6 10.4 0 16.2-8.7 16.2-16.2v-.7c1.2-.9 2.2-1.9 3-3.1"/></g></svg>