<?xml version="1.0" encoding="utf-8"?>
<!-- Generator: Adobe Illustrator 19.2.1, SVG Export Plug-In . SVG Version: 6.00 Build 0)  -->
<svg version="1.1" xmlns="http://www.w3.org/2000/svg" xmlns:xlink="http://www.w3.org/1999/xlink" x="0px" y="0px"
	 viewBox="0 0 1024 1024" enable-background="new 0 0 1024 1024" xml:space="preserve">
<g id="Layer_1">
	<circle id="XMLID_1_" fill="#400090" cx="512" cy="512" r="512"/>
	<g id="XMLID_4_">
		<path id="XMLID_31_" fill="#FFFFFF" d="M734.7,589.2c-9.1-1.3-18.5-1.7-27.4-4.1c-30.4-8-50.5-33.8-51.4-66.4
			c-0.3-9.5,0.5-19.3,2.8-28.5c7.4-29.9,32.2-50.2,63.5-52.9c15.1-1.3,30.1-1,44.6,3.9c22.7,7.8,38.2,22.7,45.2,46
			c4.9,16.4,5.1,32.9,0.7,49.3c-8.6,32-36.4,52.2-71.1,51.9c-2.2,0-4.5,0-6.7,0C734.8,588.7,734.7,589,734.7,589.2z M677.6,511.4
			c1.3,10,1.6,18.4,3.5,26.4c5.6,24.5,24.7,40.7,48.6,41.8c30.5,1.5,50.2-10.7,59-36.9c5-15.1,5.5-30.6,3.2-46.4
			c-4.1-28.9-20.9-46.6-49.8-49.6c-27.4-2.9-50.5,9-59.2,36.3C679.8,492.5,679.1,502.9,677.6,511.4z"/>
		<path id="XMLID_28_" fill="#FFFFFF" d="M576.3,583.5c-8.8-1.5-17.8-2.1-26.3-4.5c-26.1-7.4-43.1-29.2-44.5-56.3
			c-0.4-7-0.5-14.2,0.7-21c5.4-31.5,28.4-52.5,60.5-54.3c11-0.6,22.6-0.1,33.2,2.6c38.3,9.7,52,43.2,47.4,76
			C642.2,563.1,617.1,582.5,576.3,583.5z M576.3,574.1c21,0,36.5-8.1,44.2-24.7c10.4-22.7,10.5-46-0.1-68.6
			c-8.7-18.7-25.3-25.8-44.9-25.3c-20.4,0.5-36.5,9.1-44.5,29c-6.9,17.2-7.6,34.8-2.8,52.7C534.7,561.5,551,574.1,576.3,574.1z"/>
		<path id="XMLID_14_" fill="#FFFFFF" d="M481.1,579.3c0-21.5,0-42.4,0-63.9c-25.4,0-50.3,0-76.2,0c-2.2,21,0.4,41.9,1,63.8
			c-6.6,0-12.4,0-19,0c0-43,0-85.8,0-129c6.3,0,11.9,0,18.9,0c-0.6,17.8-1.2,35.2-1.9,53.8c25.9,1.8,51,0.9,77,0.5
			c0-18.1,0-35.7,0-54c6.1,0,12,0,18.3,0c0,42.8,0,85.5,0,128.9C493.4,579.3,487.8,579.3,481.1,579.3z"/>
		<path id="XMLID_13_" fill="#FFFFFF" d="M240.3,594.3c-7.1,0-14.4,0-22.1,0c-0.3-2.2-0.8-4-0.8-5.8c0.4-17.9,1.2-35.8,1.3-53.7
			c0-4.2-1.4-8.9-3.6-12.5c-15.5-26.5-31.4-52.8-47.1-79.2c-1.7-2.9-3.3-5.9-5.6-9.9c9.8,0,18,0,26.9,0
			c14.1,25.6,28.5,51.6,43.7,79.3c16.8-26.4,30.5-52.8,43.8-79.3c6.3,0,12,0,19.5,0c-2.1,3.4-3.6,5.9-5.1,8.4
			c-15.7,25.6-31.7,51.1-47.1,76.9c-2.5,4.1-3.7,9.6-3.8,14.4C240.1,553.1,240.3,573.2,240.3,594.3z"/>
		<path id="XMLID_23_" fill="#FFFFFF" d="M360.2,579.2c-6.4-15.9-12.8-31.8-19.4-48.3c-15.5,0-30.7,0-47,0c-6,15.9-12,32-18.2,48.6
			c-4.3,0-8.7,0-14.9,0c20.4-44.8,39.6-89,59.5-132.9c0.9,0,1.9-0.1,2.8-0.1c1.6,2.8,3.5,5.4,4.8,8.4
			c15.2,35.6,30.3,71.2,45.5,106.8c2.4,5.5,4.8,11,7.7,17.6C373.5,579.2,367.1,579.2,360.2,579.2z M318.7,477.7c-0.7,0-1.4,0-2.1,0
			c-5.8,13.7-11.6,27.3-17.8,41.9c13.1,0.4,24.9,1.4,37.8-0.7C330.3,504.4,324.5,491.1,318.7,477.7z"/>
		<path id="XMLID_10_" fill="#FFFFFF" d="M835.3,550.5c-6.2-0.8-5-4.7-4.8-7.6c0.7-13.7,1.5-27.5,2.4-41.2c1-15.6,2.2-31.3,3.4-46.9
			c0.4-5.1,0.7-10.2,1.7-15.2c1.4-7.5,7-11,13.9-9.6c7.2,1.5,11,6.7,9.4,14.2c-3.6,16.9-7.6,33.7-11.5,50.5
			c-4,16.8-8,33.6-12.2,50.3C837,546.8,836.1,548.5,835.3,550.5z"/>
		<path id="XMLID_5_" fill="#FFFFFF" d="M829.2,591.5c-7.3,0-13.9-6.1-14.2-13c-0.3-7.3,6.5-14.1,14-14.2c6.9,0,13.3,6.5,13.4,13.6
			C842.6,585.5,836.6,591.5,829.2,591.5z"/>
	</g>
</g>
<g id="Layer_2">
</g>
</svg>
