<?xml version="1.0" ?><svg height="512" id="Layer_1" version="1.1" viewBox="0 0 512 512" width="512" xml:space="preserve" xmlns="http://www.w3.org/2000/svg" xmlns:cc="http://creativecommons.org/ns#" xmlns:dc="http://purl.org/dc/elements/1.1/" xmlns:inkscape="http://www.inkscape.org/namespaces/inkscape" xmlns:rdf="http://www.w3.org/1999/02/22-rdf-syntax-ns#" xmlns:sodipodi="http://sodipodi.sourceforge.net/DTD/sodipodi-0.dtd" xmlns:svg="http://www.w3.org/2000/svg"><defs id="defs12"/><g id="g3990"><g id="g11737" style="fill:#cf2200;fill-opacity:1"><rect height="512" id="rect2987" style="fill:#cf2200;fill-opacity:1;fill-rule:nonzero;stroke:none" width="512" x="0" y="0"/><path d="m 130.10475,250.1215 120.1122,-120.83213 c 30.1558,-30.320263 79.0273,-30.320263 109.1654,0 7.2178,7.60007 6.88,19.89794 -0.5467,27.36911 -7.5423,7.59118 -19.7424,7.59118 -27.3025,0 l -1.8222,-2.11557 c -15.1557,-12.92456 -37.8981,-12.19122 -52.2049,2.2089 l -122.8099,123.52551 c -8.089,7.49784 -20.3024,7.49784 -27.8358,-0.08 -7.5423,-7.57784 -7.5423,-19.87573 0,-27.45357 1.0133,-1.0089 2.0933,-1.88002 3.2444,-2.62225 z m 269.6646,2.62669 c -7.5423,-7.57784 -19.7468,-7.57784 -27.2891,0 -1.0045,1.02223 -1.8845,2.11558 -2.6312,3.27559 l -119.6277,120.33881 c -15.0756,15.15568 -39.5159,15.15568 -54.5871,0 l -0.5467,-0.0845 c -7.5289,-7.57784 -19.7424,-7.57784 -27.2891,0 -7.5289,7.56451 -7.5289,19.87573 0,27.44023 0.9645,0.96446 1.9911,1.81335 3.0756,2.54669 30.3114,27.8358 77.3207,27.03135 106.632,-2.45335 l 122.2633,-123.60995 c 7.5289,-7.57785 7.5289,-19.87573 0,-27.45357 z m -187.7972,79.72513 c -1.1422,0.75557 -2.2356,1.62224 -3.2356,2.63114 -7.5423,7.56895 -7.5423,19.87572 0,27.44023 7.5334,7.57785 19.7424,7.57785 27.8358,0.0933 l 122.81,-123.54773 c 15.0757,-15.15569 39.5159,-15.15569 54.5738,0 15.0934,15.16458 15.0934,39.7559 0,54.91159 L 297.50625,411.6962 c 15.089,15.15568 39.5159,15.15568 54.5871,0 l 89.1652,-90.24078 c 30.1336,-30.32026 30.1336,-79.48068 0,-109.81427 -30.1336,-30.30249 -79.014,-30.30249 -109.1653,0 l -120.1211,120.83214 z m -16.3423,-11.01787 122.2632,-123.60995 c 7.5379,-7.58673 7.5379,-19.88461 0,-27.44912 -7.5289,-7.58674 -19.7557,-7.58674 -27.2891,0 -1.0133,1.00001 -1.8845,2.10668 -2.6178,3.26669 l -119.641,120.34326 c -15.0757,15.16457 -39.507,15.16457 -54.5738,0 -15.088996,-15.15569 -15.088996,-39.74701 0,-54.91159 l 116.4499,-117.68099 c -15.0668,-15.16902 -39.5159,-15.16902 -54.5872,0 l -89.165196,90.22743 c -30.1469,30.33359 -30.1469,79.49401 0,109.81427 30.146896,30.32915 79.036296,30.32915 109.160996,0 z" id="Squarespace" style="fill:#cf2200;fill-opacity:1"/></g><path d="m 371.28891,348.58667 h -21.95556 l 0.10223,-12.75111 c 0,-5.66667 4.65333,-10.30223 10.34222,-10.30223 h 1.4 c 5.69778,0 10.36444,4.63556 10.36444,10.30223 l -0.25333,12.75111 z m -82.34222,-27.32445 c -5.56889,0 -10.12445,3.74222 -10.12445,8.32445 V 391.6 c 0,4.57333 4.55556,8.30667 10.12445,8.30667 5.59111,0 10.15111,-3.73334 10.15111,-8.30667 v -62.01333 c 0,-4.58667 -4.56,-8.32445 -10.15111,-8.32445 z m 133.71996,-34.68889 v 117.97334 c 0,28.29777 -24.5422,51.45333 -54.5333,51.45333 H 143.87113 C 113.86669,456 89.33335,432.84444 89.33335,404.54667 V 286.57333 c 0,-28.29777 24.53334,-51.45777 54.53778,-51.45777 h 224.26222 c 29.9911,0 54.5333,23.16 54.5333,51.45777 z m -263.83552,130.78223 0,-124.27112 27.8,0.009 V 274.68011 L 112.52446,274.569 v 18.10222 l 23.13334,0.0667 V 417.3557 h 23.19111 z m 83.33333,-105.76 h -23.17777 v 66.36 c 0,9.6 0.58222,14.4 -0.0444,16.09333 -1.88444,5.14667 -10.35555,10.60889 -13.65778,0.55555 -0.56,-1.76 -0.0667,-7.07111 -0.0756,-16.19111 l -0.0933,-66.81777 h -23.04889 l 0.0711,65.76444 c 0,10.08 -0.22667,17.6 0.08,21.01778 0.56444,6.03111 0.36444,13.06666 5.96,17.08 10.42666,7.51555 30.41333,-1.12 35.41333,-11.85778 l -0.0444,13.70222 18.61333,0.0222 V 311.59554 z m 74.14667,75.99111 -0.0489,-55.23111 c 0,-21.04889 -15.76444,-33.65778 -37.14222,-16.62667 l 0.0933,-41.06222 -23.15555,0.0356 -0.11111,141.73334 19.03555,-0.28 1.73334,-8.82667 c 24.33777,22.32444 39.63111,7.03111 39.59555,-19.74222 z m 72.53778,-7.32 -17.38222,0.0933 c 0,0.68889 -0.0444,1.48444 -0.0444,2.35111 v 9.69778 c 0,5.18667 -4.28889,9.41333 -9.49778,9.41333 h -3.40444 c -5.21778,0 -9.50222,-4.22666 -9.50222,-9.41333 v -1.07556 -10.66666 -13.76445 h 39.7955 v -14.97778 c 0,-10.94666 -0.28,-21.88888 -1.18666,-28.14666 -2.84445,-19.79556 -30.63111,-22.93778 -44.66667,-12.80445 -4.40889,3.16445 -7.77333,7.4 -9.72889,13.09334 -1.97778,5.69333 -2.95555,13.47111 -2.95555,23.35111 v 32.92889 c 0.004,54.74666 66.50222,47.00889 58.56888,-0.08 z M 299.70224,201.47556 c 1.19556,2.90666 3.05334,5.26222 5.57334,7.04 2.48888,1.75111 5.67555,2.63111 9.48444,2.63111 3.34222,0 6.30222,-0.90223 8.88,-2.76445 2.56889,-1.85333 4.73333,-4.62222 6.49778,-8.31555 L 329.70224,209.16 H 355.5378 V 99.288889 H 335.20002 V 184.8 c 0,4.63111 -3.81333,8.42222 -8.47556,8.42222 -4.63555,0 -8.46222,-3.79111 -8.46222,-8.42222 V 99.288889 h -21.22666 v 74.106671 c 0,9.44 0.16888,15.73333 0.44888,18.92444 0.29778,3.16889 1.02223,6.20889 2.21778,9.15556 z m -78.29333,-62.05334 c 0,-10.54666 0.88,-18.78222 2.62667,-24.72 1.76,-5.91555 4.92,-10.67111 9.49777,-14.25778 4.56445,-3.604441 10.40889,-5.408881 17.51556,-5.408881 5.97778,0 11.09778,1.17333 15.37778,3.47111 4.29777,2.311111 7.60889,5.311111 9.91111,9.013331 2.34222,3.71556 3.93333,7.53333 4.78222,11.44 0.86667,3.96 1.29333,9.93333 1.29333,17.99111 v 27.78667 c 0,10.19111 -0.40889,17.68889 -1.2,22.44889 -0.78666,4.77333 -2.47555,9.2 -5.08889,13.35111 -2.58222,4.10666 -5.91111,7.17778 -9.94666,9.13778 -4.08,1.97777 -8.74667,2.94666 -14.01778,2.94666 -5.88889,0 -10.84889,-0.81333 -14.93778,-2.51111 -4.10222,-1.68889 -7.27111,-4.23555 -9.52889,-7.61778 -2.28,-3.38666 -3.88444,-7.51111 -4.85333,-12.32 -0.97333,-4.80444 -1.43556,-12.03111 -1.43556,-21.66222 v -29.08889 z m 20.23555,43.64445 c 0,6.22222 4.63112,11.30222 10.27112,11.30222 5.64444,0 10.25333,-5.08 10.25333,-11.30222 v -58.48889 c 0,-6.21334 -4.60889,-11.29334 -10.25333,-11.29334 -5.64,0 -10.27112,5.08 -10.27112,11.29334 v 58.48889 z M 170.14224,212.6 h 24.37334 l 0.0444,-84.26667 28.8,-72.186661 H 196.7022 L 181.39109,109.76444 165.8622,55.999999 h -26.38222 l 30.64,72.373331 0.0444,84.22667 z" id="YouTube" style="fill:#ffffff;fill-opacity:1"/></g></svg>