<?xml version="1.0" ?><!DOCTYPE svg  PUBLIC '-//W3C//DTD SVG 1.1//EN'  'http://www.w3.org/Graphics/SVG/1.1/DTD/svg11.dtd'><svg enable-background="new 0 0 64 64" id="Layer_1" version="1.1" viewBox="0 0 64 64" xml:space="preserve" xmlns="http://www.w3.org/2000/svg" xmlns:xlink="http://www.w3.org/1999/xlink"><path d="M59,33.6c0-2.7-1.7-5-4-6c0.9-0.9,1.5-2.2,1.5-3.6c0-2.8-2.3-5.1-5.1-5.1c-0.2,0-0.4,0-0.5,0  c0.3-0.7,0.5-1.5,0.5-2.3c0-2.8-2.3-5.1-5.1-5.1c-0.9,0-1.7,0.2-2.4,0.6c-0.7-2-2.6-3.7-4.8-3.7c-2.8,0-5,2.6-5.1,4.6H34v35h0.1  c0,0,0,0,0,0c0,3.6,2.9,6.4,6.5,6.4c3.2,0,5.8-2.3,6.4-5.3c0.6,0.2,1.3,0.3,2,0.3c3.6,0,6.5-2.9,6.5-6.5c0-1.1-0.3-2.2-0.8-3.2  C57.1,38.9,59,36.5,59,33.6z" fill="#F0908B"/><path d="M5,33.6c0-2.7,1.7-5,4-6c-0.9-0.9-1.5-2.2-1.5-3.6c0-2.8,2.3-5.1,5.1-5.1c0.2,0,0.4,0,0.5,0  c-0.3-0.7-0.5-1.5-0.5-2.3c0-2.8,2.3-5.1,5.1-5.1c0.9,0,1.7,0.2,2.4,0.6c0.7-2,2.6-3.7,4.8-3.7c2.8,0,5,2.6,5.1,4.6h0v35h-0.1  c0,0,0,0,0,0c0,3.6-2.9,6.4-6.5,6.4c-3.2,0-5.8-2.3-6.4-5.3c-0.6,0.2-1.3,0.3-2,0.3c-3.6,0-6.5-2.9-6.5-6.5c0-1.1,0.3-2.2,0.8-3.2  C6.9,38.9,5,36.5,5,33.6z" fill="#F0908B"/><path d="  M59,33.6c0-2.7-1.7-5-4-6c0.9-0.9,1.5-2.2,1.5-3.6c0-2.8-2.3-5.1-5.1-5.1c-0.2,0-0.4,0-0.5,0c0.3-0.7,0.5-1.5,0.5-2.3  c0-2.8-2.3-5.1-5.1-5.1c-0.9,0-1.7,0.2-2.4,0.6c-0.7-2-2.6-3.7-4.8-3.7c-2.8,0-5,2.6-5.1,4.6H34v35h0.1c0,0,0,0,0,0  c0,3.6,2.9,6.4,6.5,6.4c3.2,0,5.8-2.3,6.4-5.3c0.6,0.2,1.3,0.3,2,0.3c3.6,0,6.5-2.9,6.5-6.5c0-1.1-0.3-2.2-0.8-3.2  C57.1,38.9,59,36.5,59,33.6z" fill="none" stroke="#2C3E50" stroke-linecap="round" stroke-linejoin="round" stroke-miterlimit="10" stroke-width="2"/><path d="  M5,33.6c0-2.7,1.7-5,4-6c-0.9-0.9-1.5-2.2-1.5-3.6c0-2.8,2.3-5.1,5.1-5.1c0.2,0,0.4,0,0.5,0c-0.3-0.7-0.5-1.5-0.5-2.3  c0-2.8,2.3-5.1,5.1-5.1c0.9,0,1.7,0.2,2.4,0.6c0.7-2,2.6-3.7,4.8-3.7c2.8,0,5,2.6,5.1,4.6h0v35h-0.1c0,0,0,0,0,0  c0,3.6-2.9,6.4-6.5,6.4c-3.2,0-5.8-2.3-6.4-5.3c-0.6,0.2-1.3,0.3-2,0.3c-3.6,0-6.5-2.9-6.5-6.5c0-1.1,0.3-2.2,0.8-3.2  C6.9,38.9,5,36.5,5,33.6z" fill="none" stroke="#2C3E50" stroke-linecap="round" stroke-linejoin="round" stroke-miterlimit="10" stroke-width="2"/><path d="  M15.5,35.2c0,0,4.6-0.7,6.6,3.8c2.2,5-0.7,8.7-5,10.1" fill="none" stroke="#2C3E50" stroke-linecap="round" stroke-linejoin="round" stroke-miterlimit="10" stroke-width="2"/><path d="  M25.6,20.6c0,0-2.5,4-7,3s-5.4-4.7-5.4-4.7" fill="none" stroke="#2C3E50" stroke-linecap="round" stroke-linejoin="round" stroke-miterlimit="10" stroke-width="2"/><path d="  M25.6,29.6c-0.1-0.1-1.3-4.3-6.5-5.8" fill="none" stroke="#2C3E50" stroke-linecap="round" stroke-linejoin="round" stroke-miterlimit="10" stroke-width="2"/><path d="  M43.4,30.2c0,0-1.2,4.4,2.6,7.8c1.8,1.6,5.4,2.1,8.5,1.7" fill="none" stroke="#2C3E50" stroke-linecap="round" stroke-linejoin="round" stroke-miterlimit="10" stroke-width="2"/><path d="  M42,22c0,0,2.7,1.7,5,1s3.9-4.1,3.9-4.1" fill="none" stroke="#2C3E50" stroke-linecap="round" stroke-linejoin="round" stroke-miterlimit="10" stroke-width="2"/><path d="  M40,44c0,0,1.3-5.1,7.3-5.1" fill="none" stroke="#2C3E50" stroke-linecap="round" stroke-linejoin="round" stroke-miterlimit="10" stroke-width="2"/></svg>