<svg id="图层_1" xmlns="http://www.w3.org/2000/svg" xmlns:xlink="http://www.w3.org/1999/xlink" viewBox="0 0 128 128"><g><linearGradient id="SVGID_1_" gradientUnits="userSpaceOnUse" x1="63.79" y1="65.667" x2="63.79" y2="3.276"><stop offset="0" stop-color="#fcc21b"/><stop offset=".151" stop-color="#e5bf34"/><stop offset=".473" stop-color="#abb973"/><stop offset=".935" stop-color="#4fafd8"/><stop offset="1" stop-color="#42ade7"/></linearGradient><path d="M63.79 8.644C1.48 8.644 0 78.496 0 92.325c0 13.826 28.564 25.031 63.79 25.031 35.235 0 63.79-11.205 63.79-25.031 0-13.829-1.47-83.681-63.79-83.681z" fill="url(#SVGID_1_)"/></g><path d="M86.342 90.535c0 13.166-10.003 18.716-22.342 18.716s-22.342-5.55-22.342-18.716S51.661 61.573 64 61.573s22.342 15.796 22.342 28.962z" fill="#ed6c30"/><g><path d="M119.405 68.701c-1.51 4.552-4.853 7.134-7.492 7.667-2.961.591-5.519-.102-7.201-1.949-2.137-2.333-2.572-6.123-1.242-10.671 2.415-8.174 2.821-22.962 2.834-23.101.015-.568.351-1.059.888-1.243.524-.206 1.111-.046 1.489.37 12.9 14.421 12.264 24.311 10.724 28.927z" fill="#fff"/></g><g><g><defs><path id="SVGID_2_" d="M57.705 40.709c-.289-3.833-1.781-7.259-4.033-9.912-11.805.134-22.02 4.423-26.37 6.549a17.59 17.59 0 0 0-.51 5.693c.69 9.146 8.168 16.038 16.704 15.395s14.899-8.579 14.209-17.725z"/></defs><use xlink:href="#SVGID_2_" overflow="visible" fill="#fff"/><clipPath id="SVGID_3_"><use xlink:href="#SVGID_2_" overflow="visible"/></clipPath><path d="M54.676 33.477c.302 3.327-2.365 6.462-5.961 7.006-3.596.55-6.761-1.713-7.067-5.033-.319-3.327 2.346-6.463 5.949-7.009 3.594-.544 6.769 1.714 7.079 5.036" clip-path="url(#SVGID_3_)" fill="#2f2f2f"/></g><g><defs><path id="SVGID_4_" d="M70.295 40.709c.289-3.833 1.781-7.259 4.033-9.912 11.805.134 22.02 4.423 26.37 6.549a17.59 17.59 0 0 1 .51 5.693c-.69 9.146-8.168 16.038-16.704 15.395s-14.899-8.579-14.209-17.725z"/></defs><use xlink:href="#SVGID_4_" overflow="visible" fill="#fff"/><clipPath id="SVGID_5_"><use xlink:href="#SVGID_4_" overflow="visible"/></clipPath><path d="M73.324 33.477c-.302 3.327 2.365 6.462 5.961 7.006 3.596.55 6.761-1.713 7.067-5.033.319-3.327-2.346-6.463-5.949-7.009-3.594-.544-6.769 1.714-7.079 5.036" clip-path="url(#SVGID_5_)" fill="#2f2f2f"/></g></g></svg>