<svg id="图层_1" xmlns="http://www.w3.org/2000/svg" viewBox="0 0 128 128"><g><path d="M64 9.644C1.689 9.644.21 79.497.21 93.326c0 13.826 28.564 25.031 63.79 25.031 35.235 0 63.79-11.205 63.79-25.031 0-13.83-1.47-83.682-63.79-83.682z" fill="#fcc21b"/></g><g fill="#2f2f2f"><path d="M42.212 62.296c-4.486.043-8.168-4.265-8.217-9.619-.048-5.374 3.554-9.747 8.035-9.79 4.484-.039 8.17 4.267 8.22 9.641.048 5.355-3.553 9.727-8.038 9.768z"/><path d="M86.324 62.295c4.482-.007 8.115-4.361 8.101-9.713-.012-5.373-3.662-9.705-8.144-9.694-4.493.009-8.131 4.361-8.122 9.732.016 5.357 3.675 9.687 8.165 9.675z"/></g><g><path d="M95.257 95.775a2.99 2.99 0 0 1-2.08-.838c-15.27-14.691-43.084-14.692-58.354 0a3 3 0 0 1-4.16-4.324c17.448-16.785 49.228-16.785 66.675 0a3 3 0 0 1-2.081 5.162z" fill="#2f2f2f"/></g><g><path d="M105.642 84.1c-1.552-2.496-3.306-7.866-3.571-9.572-.457-2.943-1.697-8.28-2.597-12.741-.244-1.21-.227-2.885 1.293-2.963 1.214-.037 3.123.686 4.241 1.067 3.29 1.125 6.744 3.038 9.598 4.967 5.216 3.571 8.75 9.303 8.054 15.782-.529 4.782-5.02 7.935-9.085 7.754-2.923-.131-6.488-1.971-7.933-4.294z" fill="#fff"/></g></svg>