<svg id="图层_1" xmlns="http://www.w3.org/2000/svg" viewBox="0 0 128 128"><g><path d="M63.79 8.644C1.48 8.644 0 78.496 0 92.325c0 13.826 28.564 25.031 63.79 25.031 35.235 0 63.79-11.205 63.79-25.031 0-13.829-1.47-83.681-63.79-83.681z" fill="#fcc21b"/></g><g fill="#ed6c30"/><path d="M96.457 70.26c-3.089-2.087-6.981-.71-10.417 0-9.583 1.979-18 2.063-22.04 2.063s-12.457-.083-22.04-2.063c-3.435-.71-7.328-2.087-10.417 0-3.917 2.646-1.03 12.146 5.139 18.57C40.41 92.712 49.29 100.24 64 100.24s23.59-7.528 27.318-11.41c6.169-6.424 9.055-15.924 5.139-18.57z" fill="#ed6c30"/><g fill="#2f2f2f"><path d="M42.212 61.296c-4.486.043-8.168-4.265-8.217-9.619-.048-5.374 3.554-9.747 8.035-9.79 4.484-.039 8.17 4.267 8.22 9.641.048 5.355-3.553 9.727-8.038 9.768z"/><path d="M86.324 61.295c4.482-.007 8.115-4.361 8.101-9.713-.012-5.373-3.662-9.705-8.144-9.694-4.493.009-8.131 4.361-8.122 9.732.016 5.357 3.675 9.687 8.165 9.675z"/></g></svg>