<svg id="图层_1" xmlns="http://www.w3.org/2000/svg" viewBox="0 0 128 128"><g><linearGradient id="SVGID_1_" gradientUnits="userSpaceOnUse" x1="63.79" y1="65.667" x2="63.79" y2="3.276"><stop offset="0" stop-color="#fcc21b"/><stop offset=".151" stop-color="#e5bf34"/><stop offset=".473" stop-color="#abb973"/><stop offset=".935" stop-color="#4fafd8"/><stop offset="1" stop-color="#42ade7"/></linearGradient><path d="M63.79 8.644C1.48 8.644 0 78.496 0 92.325c0 13.826 28.564 25.031 63.79 25.031 35.235 0 63.79-11.205 63.79-25.031 0-13.829-1.47-83.681-63.79-83.681z" fill="url(#SVGID_1_)"/></g><g><g><ellipse transform="rotate(6.35 85.777 47.416)" cx="85.74" cy="47.393" rx="15.5" ry="16.607" fill="#fff"/><path d="M92.423 47.356c-.231 3.304-3.136 5.818-6.493 5.619-3.358-.194-5.895-3.041-5.67-6.339.215-3.307 3.119-5.823 6.483-5.624 3.355.2 5.903 3.044 5.68 6.344" fill="#2f2f2f"/></g><g><ellipse transform="rotate(-4.313 42.233 47.383)" cx="42.252" cy="47.403" rx="15.5" ry="16.607" fill="#fff"/><path d="M48.812 46.13c.384 3.29-2.005 6.298-5.341 6.723-3.336.431-6.356-1.897-6.745-5.18-.4-3.29 1.987-6.299 5.33-6.727 3.334-.424 6.365 1.9 6.756 5.184" fill="#2f2f2f"/></g></g><path d="M90.819 86.495C85.682 76.843 77.4 73.191 67.17 72.155A34.709 34.709 0 0 0 64 72a34.709 34.709 0 0 0-3.17.155c-10.229 1.035-18.512 4.687-23.649 14.34-3.44 6.463-2.833 12.659 1.972 16.013 2.466 1.721 7.354 1.622 10.434.65 3.322-1.047 7.488-2.891 12.808-3.003.541-.011 1.075.008 1.603.046a17.378 17.378 0 0 1 1.603-.046c5.32.112 9.486 1.956 12.808 3.003 3.081.971 7.968 1.071 10.434-.65 4.809-3.354 5.415-9.55 1.976-16.013z" fill="#ed6c30"/></svg>